<?xml version="1.0" encoding="UTF-8"?> <svg xmlns="http://www.w3.org/2000/svg" width="117" height="66" viewBox="0 0 117 66" fill="none"> <path d="M72 8.7H63.3V0C68.1 0 72 3.9 72 8.7Z" fill="#0EF5FF"></path> <path d="M37 13.1H28.2V49.1H19.8C14.2 49.1 9.6 44.5 9.6 38.9V20.4C9.6 16.4 6.3 13.1 2.3 13.1H0.800003V38.2C0.800003 48.6 9.3 57.1 19.8 57.1H37V13.1Z" fill="white"></path> <path d="M45.8 13.1H54.6V57.1C54.6 61.9 50.7 65.8 45.8 65.8V13.1Z" fill="white"></path> <path d="M63.3 13.1H72.1V57.1H63.3V13.1Z" fill="white"></path> <path d="M80.8 13.1V57.1H89.6V21.1H98C103.6 21.1 108.2 25.7 108.2 31.3V49.8C108.2 53.8 111.5 57.1 115.5 57.1H117V32C117 21.6 108.5 13.1 98 13.1H80.8V13.1Z" fill="white"></path> </svg> 